<svg xmlns="http://www.w3.org/2000/svg" width="24" height="24"><circle style="text-decoration-line:none;text-decoration-style:solid;text-decoration-color:#000;white-space:normal;isolation:auto;mix-blend-mode:normal;solid-color:#000;solid-opacity:1;marker:none" cx="12" cy="12" r="12" color="#000" overflow="visible" fill="#f6f689"/><path d="M12 7.533C9.919 6.237 6.747 5.716 3.5 5.617v12.547c2.789.085 5.521.482 7.556 1.413.599.275 1.287.275 1.889 0 2.034-.93 4.766-1.328 7.555-1.413V5.617c-3.247.099-6.419.62-8.5 1.916zm-7.083 9.282V7.108c3.653.276 5.331 1.037 6.375 1.654v9.327c-1.08-.387-3.34-1.065-6.375-1.274zm14.166 0c-3.033.208-5.294.887-6.375 1.275V8.76c1.03-.61 2.713-1.375 6.375-1.652v9.707zM17.667 9.58a19.544 19.544 0 00-4.25 1.185v-.754c1.181-.44 2.749-.931 4.25-1.152v.722zm0 2.164c-1.501.22-3.069.712-4.25 1.152v.754a19.549 19.549 0 014.25-1.185v-.72zm0-1.438c-1.501.22-3.069.711-4.25 1.152v.753a19.548 19.548 0 014.25-1.185v-.72zm0 4.316c-1.501.22-3.069.71-4.25 1.152v.753a19.549 19.549 0 014.25-1.185v-.72zm0-1.439c-1.501.22-3.069.711-4.25 1.152v.753a19.543 19.543 0 014.25-1.185v-.72zM6.333 8.86c1.501.22 3.069.712 4.25 1.152v.754a19.506 19.506 0 00-4.25-1.185v-.72zm0 3.606a19.51 19.51 0 014.25 1.185v-.754c-1.181-.44-2.749-.931-4.25-1.152v.72zm0-1.439a19.51 19.51 0 014.25 1.185v-.753c-1.181-.441-2.749-.933-4.25-1.152v.72zm0 4.316a19.51 19.51 0 014.25 1.185v-.754c-1.181-.44-2.749-.931-4.25-1.151v.72zm0-1.439a19.51 19.51 0 014.25 1.185v-.753c-1.181-.44-2.749-.932-4.25-1.152v.72z" fill="#fff"/></svg>