<svg xmlns="http://www.w3.org/2000/svg" viewBox="0 0 24 24">
  <circle cx="12" cy="12" r="12" fill="hsl(358deg 50% 54%)" />
  <path
    d="M12 7.5a18 18 0 00-8.5-1.9v12.6c2.8 0 5.5.4 7.6 1.4.6.3 1.2.3 1.8 0 2-1 4.8-1.4 7.6-1.4V5.6a18 18 0 00-8.5 2zm-7 9.3V7.1c3.6.3 5.2 1 6.3 1.7V18c-1-.4-3.3-1-6.4-1.3zm14 0c-3 .2-5.2.9-6.3 1.3V8.8c1-.7 2.7-1.4 6.4-1.7v9.7zm-1.3-7.2a19.5 19.5 0 00-4.3 1.2V10A22 22 0 0117.7 9v.7zm0 2.1c-1.5.3-3.1.8-4.3 1.2v.7a19.5 19.5 0 014.3-1.1v-.8zm0-1.4c-1.5.2-3.1.7-4.3 1.2v.7a19.5 19.5 0 014.3-1.2v-.7zm0 4.3c-1.5.2-3.1.7-4.3 1.2v.7a19.5 19.5 0 014.3-1.2v-.7zm0-1.4c-1.5.2-3.1.7-4.3 1.1v.8a19.5 19.5 0 014.3-1.2v-.7zM6.3 8.9c1.5.2 3.1.7 4.3 1.1v.8a19.5 19.5 0 00-4.3-1.2v-.7zm0 3.6a19.5 19.5 0 014.3 1.2v-.8a22 22 0 00-4.3-1.2v.8zm0-1.5a19.5 19.5 0 014.3 1.2v-.7c-1.2-.5-2.8-1-4.3-1.2v.7zm0 4.3a19.5 19.5 0 014.3 1.2v-.7c-1.2-.5-2.8-1-4.3-1.2v.7zm0-1.4a19.5 19.5 0 014.3 1.2v-.8c-1.2-.4-2.8-.9-4.3-1.1v.7z"
    fill="#fff"
  />
</svg>
