<svg
  xmlns="http://www.w3.org/2000/svg"
  viewBox="0 0 24 24"
  width="24"
  height="24"
>
  <path
    fill="hsl(358deg 50% 54%)"
    d="M12 4.7C9 3 4.6 2.1 0 2v17.7c4 .1 7.8.7 10.7 2 .8.4 1.8.4 2.6 0 3-1.3 6.8-1.9 10.7-2V2c-4.6.1-9 .9-12 2.7zM2 17.8V4.1c5.2.4 7.5 1.5 9 2.3v13.2c-1.5-.5-4.7-1.5-9-1.8zm20 0a34 34 0 00-9 1.8V6.4c1.5-.8 3.8-1.9 9-2.3v13.7zM20 7.6c-2 .3-4.5 1-6 1.7V8.2c1.7-.6 3.9-1.3 6-1.6v1zm0 3c-2.1.4-4.3 1-6 1.7v1c1.5-.6 4-1.3 6-1.6v-1zm0-2c-2.1.3-4.3 1-6 1.6v1.1c1.5-.6 4-1.4 6-1.7v-1zm0 6.1c-2.1.3-4.3 1-6 1.6v1.1c1.5-.6 4-1.4 6-1.7v-1zm0-2c-2.1.3-4.3 1-6 1.6v1c1.5-.6 4-1.3 6-1.6v-1zM4 6.6c2.1.3 4.3 1 6 1.6v1C8.5 8.7 6 8 4 7.7v-1zm0 5c2 .4 4.5 1 6 1.7v-1c-1.7-.6-3.9-1.3-6-1.6v1zm0-2c2 .3 4.5 1 6 1.7v-1c-1.7-.7-3.9-1.4-6-1.7v1zm0 6.1c2 .3 4.5 1 6 1.7v-1c-1.7-.7-3.9-1.4-6-1.7v1zm0-2c2 .3 4.5 1 6 1.7v-1c-1.7-.7-3.9-1.4-6-1.7v1z"
  />
</svg>
