<svg xmlns="http://www.w3.org/2000/svg" width="24" height="24" fill-rule="evenodd" clip-rule="evenodd"><circle style="text-decoration-line:none;text-decoration-style:solid;text-decoration-color:#000;white-space:normal;isolation:auto;mix-blend-mode:normal;solid-color:#000;solid-opacity:1;marker:none" cx="12" cy="12" r="12" color="#000" clip-rule="nonzero" overflow="visible" fill="#386cb0" fill-rule="nonzero"/><path d="M20 19.29H4v-1.333h16v1.334zm-.667-2H4.667v-.666h14.666v.667zM8 15.959H5.333v-4.667a.667.667 0 010-1.334H8a.667.667 0 010 1.334v4.667zm5.333 0h-2.667v-4.667a.667.667 0 010-1.334h2.667a.667.667 0 010 1.334v4.667zm5.333 0H16v-4.667a.667.667 0 010-1.334h2.667a.667.667 0 010 1.334v4.667zM12 3.291l-8 6h16l-8-6zm0 2a1.334 1.334 0 11-.001 2.667 1.334 1.334 0 010-2.667z" fill="#fff"/></svg>