<svg
  xmlns="http://www.w3.org/2000/svg"
  fill-rule="evenodd"
  clip-rule="evenodd"
  viewBox="0 0 24 24"
  width="24"
  height="24"
>
  <path
    d="M13 24h-2V5l1 1 1-1v19zm-2.8-8.4c-1.6-.5-3.1-.2-4 .7-1.6 1.3-1.3 3.6-1.3 3.6s2.6.7 4.1-.6c1.5-1.3 1.2-3.5 1.2-3.7zm3.6 0c1.5-.5 3.1-.2 4 .7 1.6 1.3 1.3 3.6 1.3 3.6s-2.6.7-4.1-.6c-1.5-1.3-1.2-3.5-1.2-3.7zm4.3-1.1c1.1-1 2.5-1.3 3.6-.9 1.8.6 2.3 2.6 2.3 2.6s-2 1.5-3.7 1c-1.6-.7-2.2-2.6-2.2-2.7zm-12.2 0c-1.1-1-2.5-1.3-3.6-.9-1.8.6-2.3 2.6-2.3 2.6s2 1.5 3.7 1c1.6-.7 2.2-2.6 2.2-2.7zm4.3 0c.2-1.4-.2-2.7-1-3.5C7.8 10 6 10.4 6 10.4s-.4 2.3 1 3.4c1.2 1.1 3 .7 3.2.7zm3.6 0c-.2-1.4.2-2.7 1-3.5 1.4-1.1 3.2-.6 3.2-.6s.4 2.3-1 3.4c-1.2 1.1-3 .7-3.2.7zm4.6-2.4c.4-1.2 1.3-2 2.3-2.2 1.5-.3 2.8.9 2.8.9s-.8 2-2.3 2.2c-1.5.3-2.7-.8-2.8-.9zm-12.8 0c-.4-1.2-1.3-2-2.3-2.2-1.5-.3-2.8.9-2.8.9s.8 2 2.3 2.2c1.5.3 2.7-.8 2.8-.9zm8-2.4c0-1.3.5-2.4 1.4-3 1.4-.8 3 0 3 0s0 2.1-1.4 3c-1.3.8-2.9 0-3 0zm-3.2 0c0-1.3-.5-2.4-1.4-3-1.4-.8-3 0-3 0s0 2.1 1.4 3c1.3.8 2.9 0 3 0zm-4.8-.5c.1-1.1-.4-2.1-1.1-2.7-1.2-.8-2.7-.2-2.7-.2s0 2 1.1 2.7c1.2.8 2.6.3 2.7.2zm12.8 0c-.1-1.1.4-2.1 1.1-2.7 1.2-.8 2.7-.2 2.7-.2s0 2-1.1 2.7c-1.2.8-2.6.3-2.7.2zm-4.2-3c-.6-1-.5-2.2 0-3 .8-1.3 2.5-1.4 2.5-1.4s.9 1.9 0 3.1c-.7 1.3-2.4 1.4-2.5 1.4zm-4.4 0c.6-1 .5-2.2 0-3C9 1.9 7.3 1.8 7.3 1.8s-.9 1.9 0 3.1C8 6.2 9.7 6.3 9.8 6.3zm-3-.2c0-1-.3-1.8-1-2.3-1-.6-2.2-.1-2.2-.1s0 1.5 1 2.2c.9.7 2.1.2 2.2.2zm10.4 0c0-1 .3-1.8 1-2.3 1-.6 2.2-.1 2.2-.1s0 1.5-1 2.2c-.9.7-2.1.2-2.2.2zM12 5c-1-.7-1.5-1.7-1.4-2.7C10.6 1 12 0 12 0s1.5 1.1 1.5 2.6C13.5 4 12 5 12 5z"
    fill="hsl(133deg 33% 50%)"
  />
</svg>
