<svg version="1" xmlns="http://www.w3.org/2000/svg" width="682.667" height="682.667" viewBox="0 0 512.000000 512.000000"><path d="M248 .9c-16.4 5.4-24.6 23.3-17.7 38.5 10.3 22.4 41.1 22.5 51.3.1 6.3-13.6.5-29.8-13-36.7C264.2.5 252.5-.6 248 .9zM182.9 10.5c-18.1 6.5-25 28-13.9 43.3 13 18 41.2 14.3 49-6.5 6.8-18.2-5.7-37.3-25-37.9-3.6-.1-8.1.4-10.1 1.1zM312.2 10.4c-24.5 8-26.7 41.6-3.4 52.7 6.5 3 16.9 3.1 23.2 0 10.6-5 16.5-14.2 16.4-25.6 0-8.4-2.6-14.6-8.2-20.1-7.1-7-18.9-10-28-7zM122.5 38c-20.8 8.2-24 37.4-5.5 49.6 10.1 6.7 23.1 6.4 32.5-.8C157 81 160.9 73.5 161 64.4c0-10.4-6.3-21-15.4-25.4-6.5-3.1-16.7-3.6-23.1-1zM370.4 37.8c-19.6 6.8-25.6 32.1-10.8 46.5 6.1 5.9 11.7 8.2 20 8.1 11.5-.1 20.5-5.9 25.6-16.4 2.9-6.1 2.9-17-.1-23.4-6-12.8-21.4-19.4-34.7-14.8zM78 79.2c-17.1 3.1-27.2 22.9-19.8 38.8 3.1 6.8 7.1 11 13.4 14 13.7 6.7 30.4 1 37.4-12.6 3.4-6.6 3.5-18.8.3-25C103.2 82.8 91 76.8 78 79.2zM425 79.1c-14.2 2.1-23.9 12.6-24.5 26.5-.5 11.2 5.3 21.4 15.1 26.4 7 3.6 18.8 3.6 25.7 0 16.4-8.3 20.2-30.1 7.8-44.2-5.5-6.3-15.7-10-24.1-8.7zM155.7 118.9c-.2.3-.3 3.7-.3 7.6.1 6.5.3 7 2.6 7.7 1.4.4 5.7 1.6 9.5 2.7 3.9 1.1 9.1 3.4 11.8 5l4.7 3.1v209.9l-3.2 2.5c-3 2.2-12.2 5.7-21.8 8.2l-3.5 1v14.9l97.7.2c90.3.1 97.8 0 98.2-1.5.3-1 .8-3.5 1.1-5.7.3-2.2.8-5.1 1-6.5.3-1.4.7-4.1 1-6 .2-1.9.9-7.1 1.5-11.5s1.3-10 1.6-12.5c.2-2.5.8-7.8 1.2-11.8.6-4.8.5-7.5-.2-8.1-.6-.5-3.8-1.8-7-3-5.9-2.2-8.6-2.2-8.6 0 0 1.9-7.1 18-10.4 23.4-5.8 9.9-13.3 15.1-23.9 16.9-8.4 1.4-44.5 1.3-53.4-.2-8.3-1.4-14.7-4.4-17-7.8-1.7-2.6-1.8-7.7-1.8-102.2v-99.5l3.4-2.8c2.9-2.4 7.2-4 23.1-8.7 2.4-.7 2.5-1.1 2.5-8.2v-7.5l-54.8-.1c-30.1-.1-54.9.2-55 .5zM38.8 134.9c-23.2 9.3-24.5 40.8-2.1 51.7 7.1 3.5 16.6 3.7 23.5.4 14.1-6.6 20.3-22.9 14.2-36.9-3.1-6.8-6-10-12.6-13.6-6.8-3.7-16.3-4.4-23-1.6zM455.9 134.4c-15.5 4-24.6 21.8-18.8 37 7.1 19.1 32.3 24.4 46.5 9.7 5.4-5.5 7.7-11.4 7.7-19.6 0-18.9-16.9-31.8-35.4-27.1zM24.5 195.6C2.7 201.1-5 228.4 10.9 243.8c7.8 7.6 21.7 10 31.1 5.4 10.6-5.1 16.2-14 16.3-25.7.1-15.2-10.8-26.9-26.1-28-3.1-.2-6.6-.1-7.7.1zM476.1 196.2c-13 2.3-22.4 14-22.4 27.8 0 7.9 2.4 13.9 7.8 19.4 5.9 6 12.5 8.6 20.9 8.3 11.5-.4 19.3-5.5 24.8-16 3.1-6 3.1-17.4 0-23.8-5.8-11.7-18.2-18-31.1-15.7zM20.2 262.2c-6.5 2.4-12.5 8.2-15.6 14.8-4.1 8.7-2.1 22.5 4.1 29.5 13.6 15.4 37.8 12.3 47-5.9 3.5-6.9 3.7-17.1.5-23.8-6.7-13.7-22-19.9-36-14.6zM476 261c-13 2.4-22.3 13.7-22.3 27.5-.1 8.6 2.3 14.4 8.2 20.3 13.5 13.3 37.6 8.9 45.1-8.2 9.4-21.4-8.2-43.8-31-39.6zM38.6 324.5c-23.1 9.4-24.2 40.7-1.9 51.6 6.5 3.2 16.7 3.2 23.7.1 10.2-4.6 17.2-16.3 16.3-27.3-1.6-19.4-20.6-31.5-38.1-24.4zM451.5 325.3c-13.3 6.5-19.6 21.2-14.9 35 2.4 7 9.3 14.1 16.2 16.7 9.9 3.8 22.3 1.6 29.4-5.2 11.8-11.3 12.2-29.9.8-40.9-5.9-5.7-9.5-7.2-18.5-7.6-6.9-.4-8.7-.1-13 2zM76 377.9c-20.3 6.4-27 30.5-13.1 46.4 6 6.8 18.5 10.6 27.7 8.4 7.9-1.9 17.1-10.4 19.8-18.2 1.8-5.5 1.4-15.6-.9-20.9-2.3-5.5-10.2-13-15.5-14.8-5-1.6-14.2-2.1-18-.9zM415.8 380.3c-26.5 13.2-17.5 52.9 12 53 18.6.1 31.6-16.1 27.7-34.4-2.8-12.9-15.6-22.5-29.3-21.7-2.7.1-7 1.4-10.4 3.1zM126.5 420c-22.3 5-29.3 33.1-12.2 49 9.3 8.7 26.3 8.7 36.7.1 11-9 12.9-28.8 3.7-39.1-7.2-8.1-18.6-12.2-28.2-10zM372.2 420.6c-21.1 5.4-28.4 31.6-13.2 47.1 10.4 10.6 28.1 10.9 39.1.6 21.3-19.9 2.2-54.9-25.9-47.7zM184.5 447.4c-6 1.7-9.9 4.1-14.2 9-10.1 11.4-8.6 29.8 3.2 39.8 13.5 11.6 35.3 7.1 43-8.7 10.8-22-8.6-46.3-32-40.1zM312.7 447.5c-21.8 5.8-28 33.5-10.8 48.6 10.3 9.1 26 9 36.5-.2 12.3-10.9 13.2-29 1.8-40.6-7.3-7.6-17.4-10.4-27.5-7.8zM249.9 456.3c-18 4.4-27.2 23.6-19.3 40.2 5.7 12.1 21.2 18.4 34.5 14 7.3-2.5 14.9-10.1 17.4-17.4 2.2-6.6 1.6-16.2-1.4-21.8-5.9-11.3-19.6-17.9-31.2-15z"/></svg>