<svg class="logo" xmlns="http://www.w3.org/2000/svg" xmlns:xlink="http://www.w3.org/1999/xlink" version="1.1" id="Layer_1" x="0" y="0" viewBox="0 0 195.6 50.22" enable-background="new 0 0 195.6 50.22" xml:space="preserve">
<g class="logo-bars">
  <line class="logo-bar" stroke="#DB3B3E" stroke-width="1.75" x1="0" y1="32.52" x2="9" y2="32.52"/>
  <line class="logo-bar" stroke="#953131" stroke-width="1.75" x1="8.89" y1="32.52" x2="17.89" y2="32.52"/>
  <line class="logo-bar" stroke="#DA6D41" stroke-width="1.75" x1="17.78" y1="32.52" x2="26.78" y2="32.52"/>
  <line class="logo-bar" stroke="#C19D50" stroke-width="1.75" x1="26.67" y1="32.52" x2="35.67" y2="32.52"/>
  <line class="logo-bar" stroke="#97A758" stroke-width="1.75" x1="35.56" y1="32.52" x2="44.56" y2="32.52"/>
  <line class="logo-bar" stroke="#8AC554" stroke-width="1.75" x1="44.45" y1="32.52" x2="53.45" y2="32.52"/>
  <line class="logo-bar" stroke="#3B733C" stroke-width="1.75" x1="53.34" y1="32.52" x2="62.34" y2="32.52"/>
  <line class="logo-bar" stroke="#2B5E5B" stroke-width="1.75" x1="62.24" y1="32.52" x2="71.24" y2="32.52"/>
  <line class="logo-bar" stroke="#7DA298" stroke-width="1.75" x1="71.12" y1="32.52" x2="80.12" y2="32.52"/>
  <line class="logo-bar" stroke="#59B4A3" stroke-width="1.75" x1="80.02" y1="32.52" x2="89.02" y2="32.52"/>
  <line class="logo-bar" stroke="#46B4CD" stroke-width="1.75" x1="88.91" y1="32.52" x2="97.91" y2="32.52"/>
  <line class="logo-bar" stroke="#507DBA" stroke-width="1.75" x1="97.8" y1="32.52" x2="106.8" y2="32.52"/>
  <line class="logo-bar" stroke="#475390" stroke-width="1.75" x1="106.69" y1="32.52" x2="115.69" y2="32.52"/>
  <line class="logo-bar" stroke="#684B83" stroke-width="1.75" x1="115.59" y1="32.52" x2="124.59" y2="32.52"/>
  <line class="logo-bar" stroke="#9A4B98" stroke-width="1.75" x1="124.47" y1="32.52" x2="133.47" y2="32.52"/>
  <line class="logo-bar" stroke="#846EAD" stroke-width="1.75" x1="133.36" y1="32.52" x2="142.36" y2="32.52"/>
  <line class="logo-bar" stroke="#867078" stroke-width="1.75" x1="142.25" y1="32.52" x2="151.25" y2="32.52"/>
  <line class="logo-bar" stroke="#71493D" stroke-width="1.75" x1="151.15" y1="32.52" x2="160.15" y2="32.52"/>
  <line class="logo-bar" stroke="#B58374" stroke-width="1.75" x1="160" y1="32.52" x2="169" y2="32.52"/>
  <line class="logo-bar" stroke="#C39A8E" stroke-width="1.75" x1="168.93" y1="32.52" x2="177.93" y2="32.52"/>
  <line class="logo-bar" stroke="#D986B7" stroke-width="1.75" x1="177.9" y1="32.52" x2="186.9" y2="32.52"/>
  <line class="logo-bar" stroke="#D44A99" stroke-width="1.75" x1="186.71" y1="32.52" x2="195.6" y2="32.52"/>
</g>
<g class="logo-title">
  <path d="M26.4 18.67c-0.05 0.56-0.11 1.15-0.19 1.77 -0.07 0.62-0.14 1.2-0.21 1.76 -0.07 0.55-0.14 1.05-0.21 1.48 -0.07 0.43-0.13 0.74-0.19 0.94H7.34v-1.43c0.89-0.18 1.55-0.38 2-0.6s0.67-0.41 0.67-0.6V2.64c0-0.16-0.21-0.35-0.63-0.59C8.96 1.82 8.28 1.61 7.34 1.43V0h10.25v1.43c-0.89 0.18-1.56 0.38-2.01 0.61 -0.46 0.22-0.68 0.42-0.68 0.61V20.82c0 0.23 0.06 0.44 0.17 0.62 0.11 0.18 0.3 0.33 0.58 0.45s0.65 0.22 1.11 0.28 1.06 0.1 1.78 0.1h2.21c0.6 0 1.1-0.07 1.51-0.21s0.77-0.37 1.08-0.69 0.6-0.74 0.85-1.26 0.52-1.16 0.79-1.93L26.4 18.67z"/>
  <path d="M47.11 22.42c-0.55 0.38-1.12 0.74-1.71 1.07 -0.59 0.34-1.15 0.64-1.68 0.89s-1.01 0.45-1.44 0.6c-0.44 0.14-0.77 0.22-1.01 0.22 -0.48 0-0.89-0.27-1.22-0.82s-0.53-1.31-0.6-2.28c-0.59 0.59-1.17 1.08-1.77 1.48 -0.59 0.4-1.17 0.72-1.72 0.96 -0.55 0.24-1.08 0.41-1.59 0.52s-0.97 0.16-1.39 0.16c-0.55 0-1.08-0.09-1.61-0.28s-1-0.47-1.43-0.84c-0.42-0.37-0.76-0.84-1.02-1.41 -0.26-0.57-0.39-1.23-0.39-1.98 0-0.88 0.16-1.64 0.48-2.26 0.32-0.62 0.72-1.17 1.2-1.65 0.31-0.31 0.67-0.61 1.08-0.91s0.96-0.58 1.64-0.85 1.54-0.54 2.58-0.79 2.34-0.5 3.92-0.73v-2.31c0-0.4-0.04-0.78-0.12-1.12 -0.08-0.34-0.21-0.64-0.41-0.89 -0.19-0.25-0.46-0.44-0.78-0.58 -0.33-0.14-0.74-0.2-1.23-0.2 -0.31 0-0.62 0.06-0.94 0.18s-0.59 0.28-0.82 0.5 -0.42 0.48-0.56 0.78c-0.14 0.31-0.19 0.65-0.15 1.05 0.01 0.08-0.09 0.18-0.31 0.29 -0.22 0.12-0.5 0.24-0.84 0.36 -0.34 0.12-0.71 0.25-1.12 0.37 -0.41 0.12-0.8 0.23-1.18 0.31 -0.38 0.09-0.72 0.15-1.02 0.2 -0.3 0.05-0.5 0.06-0.6 0.03l-0.41-1.05c0.31-0.78 0.8-1.51 1.48-2.18 0.67-0.67 1.46-1.26 2.35-1.76 0.9-0.5 1.88-0.89 2.94-1.18 1.06-0.29 2.13-0.43 3.21-0.43 0.9 0 1.67 0.12 2.32 0.35 0.65 0.23 1.19 0.56 1.61 0.99 0.42 0.42 0.74 0.92 0.95 1.49 0.21 0.57 0.31 1.19 0.31 1.86v9.41c0 0.55 0.07 0.94 0.22 1.17 0.14 0.23 0.33 0.35 0.57 0.35 0.09 0 0.19-0.01 0.28-0.02s0.22-0.04 0.35-0.08 0.3-0.09 0.48-0.17c0.18-0.07 0.4-0.16 0.66-0.26L47.11 22.42zM35.32 21.78c0.25 0 0.51-0.03 0.78-0.09s0.58-0.16 0.91-0.31 0.7-0.36 1.09-0.62c0.4-0.27 0.84-0.61 1.34-1.02V15.41c-0.78 0.13-1.44 0.26-1.97 0.38 -0.53 0.12-0.98 0.25-1.35 0.38 -0.36 0.13-0.66 0.27-0.89 0.41 -0.23 0.14-0.43 0.3-0.6 0.47 -0.34 0.34-0.61 0.7-0.82 1.09 -0.21 0.39-0.31 0.86-0.31 1.41 0 0.44 0.06 0.81 0.19 1.09 0.12 0.29 0.28 0.52 0.47 0.68 0.19 0.17 0.39 0.29 0.6 0.35C34.96 21.75 35.15 21.78 35.32 21.78z"/>
  <path d="M60.6 24.61v-1.43c0.94-0.25 1.6-0.46 1.99-0.64s0.59-0.36 0.59-0.55v-8.87c0-0.72-0.04-1.31-0.11-1.79 -0.07-0.47-0.19-0.86-0.34-1.14 -0.16-0.29-0.36-0.49-0.62-0.6 -0.26-0.12-0.59-0.18-0.98-0.18 -0.31 0-0.64 0.04-1 0.13 -0.35 0.09-0.74 0.23-1.16 0.43 -0.42 0.2-0.89 0.48-1.41 0.83 -0.51 0.35-1.08 0.79-1.71 1.33v9.86c0 0.2 0.22 0.4 0.66 0.61 0.44 0.21 1.09 0.4 1.93 0.59v1.43h-9.86v-1.43c0.86-0.22 1.5-0.42 1.93-0.6s0.65-0.37 0.65-0.6v-10.84c0-0.51-0.01-0.91-0.03-1.21 -0.02-0.3-0.11-0.53-0.26-0.7 -0.16-0.17-0.41-0.29-0.76-0.37s-0.86-0.16-1.52-0.23V7.27c0.63-0.06 1.21-0.14 1.75-0.23 0.54-0.09 1.06-0.19 1.55-0.3 0.5-0.11 0.98-0.24 1.45-0.38 0.47-0.14 0.94-0.31 1.41-0.49l0.82 0.82 0.22 2.81c1.52-1.3 2.95-2.23 4.27-2.79 1.32-0.56 2.49-0.84 3.51-0.84 0.56 0 1.1 0.09 1.62 0.26 0.52 0.18 0.98 0.46 1.38 0.86 0.4 0.4 0.72 0.92 0.96 1.55 0.24 0.64 0.36 1.41 0.36 2.32v11.13c0 0.09 0.04 0.18 0.12 0.26s0.22 0.17 0.41 0.26 0.46 0.19 0.8 0.3c0.34 0.11 0.76 0.23 1.27 0.36v1.43H60.6z"/>
  <path d="M88.43 12.09c0 1-0.22 1.92-0.66 2.74 -0.44 0.83-1.03 1.54-1.78 2.13 -0.74 0.59-1.6 1.06-2.58 1.39s-2 0.5-3.09 0.5h-0.19c-0.49 0.46-0.81 0.82-0.95 1.1 -0.14 0.28-0.2 0.46-0.2 0.54 0 0.12 0.04 0.23 0.12 0.34s0.26 0.22 0.56 0.33 0.74 0.23 1.33 0.34c0.59 0.12 1.4 0.24 2.41 0.37 1.52 0.2 2.79 0.43 3.79 0.71 1 0.28 1.8 0.62 2.39 1.01 0.59 0.39 1.01 0.84 1.24 1.35s0.35 1.08 0.35 1.72c0 0.61-0.14 1.22-0.42 1.84 -0.28 0.61-0.67 1.2-1.16 1.77 -0.49 0.57-1.07 1.09-1.74 1.57s-1.38 0.9-2.16 1.26c-0.77 0.36-1.58 0.64-2.42 0.84s-1.68 0.3-2.51 0.3c-0.68 0-1.38-0.04-2.12-0.13 -0.74-0.08-1.46-0.22-2.17-0.4 -0.71-0.18-1.38-0.41-2.02-0.69 -0.64-0.28-1.2-0.62-1.68-1.02 -0.48-0.4-0.87-0.85-1.15-1.36 -0.29-0.51-0.43-1.07-0.43-1.7 0-0.32 0.07-0.66 0.21-1s0.39-0.7 0.75-1.08c0.36-0.38 0.86-0.8 1.49-1.25 0.63-0.45 1.45-0.95 2.45-1.49 -1.48-0.6-2.23-1.24-2.23-1.91 0-0.14 0.06-0.33 0.19-0.58 0.12-0.24 0.33-0.52 0.61-0.84 0.28-0.32 0.65-0.67 1.1-1.06 0.46-0.39 1.01-0.81 1.66-1.25 -0.73-0.19-1.39-0.47-1.99-0.82 -0.6-0.35-1.11-0.77-1.53-1.25 -0.42-0.48-0.75-1.02-0.99-1.62 -0.23-0.6-0.35-1.24-0.35-1.93 0-0.95 0.23-1.85 0.7-2.7 0.47-0.85 1.09-1.59 1.88-2.23 0.78-0.63 1.69-1.13 2.73-1.5s2.12-0.56 3.25-0.56c0.9 0 1.74 0.12 2.52 0.37 0.78 0.25 1.48 0.58 2.11 1 1.13-0.14 2.16-0.36 3.08-0.64 0.92-0.29 1.64-0.53 2.18-0.72l0.55 0.72c-0.04 0.14-0.1 0.31-0.19 0.51 -0.08 0.2-0.18 0.39-0.27 0.6 -0.1 0.2-0.2 0.4-0.31 0.61 -0.11 0.2-0.22 0.38-0.34 0.54 -0.44 0.08-0.89 0.14-1.35 0.2 -0.46 0.05-0.96 0.09-1.5 0.12 0.27 0.46 0.49 0.93 0.64 1.42C88.36 11.05 88.43 11.56 88.43 12.09zM81.75 25.43c-0.62-0.08-1.21-0.17-1.76-0.27s-1.06-0.21-1.54-0.31c-0.6 0.42-1.07 0.79-1.42 1.11 -0.34 0.33-0.6 0.62-0.77 0.89 -0.17 0.27-0.28 0.51-0.32 0.72 -0.05 0.22-0.07 0.42-0.07 0.62 0 0.43 0.16 0.84 0.48 1.24 0.32 0.4 0.76 0.75 1.32 1.05 0.56 0.3 1.22 0.54 1.98 0.71s1.59 0.26 2.47 0.26c0.77 0 1.43-0.09 1.99-0.28 0.56-0.19 1.02-0.45 1.4-0.77s0.65-0.7 0.83-1.11c0.18-0.42 0.27-0.85 0.27-1.31 0-0.25-0.06-0.49-0.18-0.74s-0.35-0.48-0.7-0.7 -0.85-0.43-1.48-0.61C83.61 25.72 82.78 25.56 81.75 25.43zM83.94 12.89c0-0.66-0.09-1.29-0.26-1.86 -0.18-0.58-0.43-1.08-0.77-1.51 -0.34-0.43-0.76-0.77-1.26-1.02 -0.5-0.25-1.08-0.38-1.75-0.38 -0.33 0-0.66 0.08-1 0.23 -0.34 0.15-0.64 0.38-0.92 0.67 -0.27 0.3-0.5 0.68-0.67 1.13 -0.18 0.46-0.26 0.99-0.26 1.6 0 0.65 0.08 1.27 0.23 1.85 0.16 0.58 0.4 1.08 0.73 1.51s0.75 0.77 1.26 1.02 1.11 0.38 1.82 0.38c0.38 0 0.74-0.07 1.08-0.22 0.35-0.15 0.65-0.37 0.91-0.67 0.26-0.3 0.47-0.67 0.63-1.12S83.94 13.5 83.94 12.89z"/>
  <path d="M114.32 22.42c-0.48 0.31-1.01 0.63-1.59 0.96s-1.14 0.63-1.68 0.9 -1.02 0.5-1.44 0.66 -0.71 0.25-0.87 0.25c-0.23 0-0.46-0.04-0.67-0.13s-0.42-0.25-0.6-0.49 -0.35-0.57-0.5-1 -0.25-0.97-0.33-1.63c-0.81 0.7-1.53 1.27-2.18 1.69s-1.23 0.75-1.76 0.99 -1.01 0.39-1.45 0.46c-0.44 0.07-0.87 0.11-1.29 0.11 -0.61 0-1.21-0.08-1.8-0.25s-1.11-0.48-1.58-0.93 -0.85-1.06-1.13-1.85c-0.29-0.78-0.43-1.78-0.43-3.01v-8.01c0-0.62-0.01-1.11-0.03-1.45 -0.02-0.34-0.1-0.6-0.25-0.78 -0.15-0.18-0.38-0.3-0.7-0.36 -0.32-0.06-0.78-0.13-1.38-0.19V6.99c0.65-0.05 1.25-0.11 1.79-0.18 0.54-0.06 1.06-0.14 1.55-0.22 0.5-0.08 0.99-0.19 1.48-0.3s1.01-0.26 1.55-0.43l0.68 0.9V17.93c0 0.81 0.05 1.47 0.15 1.97s0.24 0.9 0.44 1.18 0.43 0.47 0.71 0.58c0.28 0.1 0.6 0.16 0.97 0.16 0.27 0 0.57-0.03 0.89-0.1 0.32-0.06 0.67-0.19 1.06-0.36 0.38-0.18 0.8-0.41 1.25-0.71 0.45-0.3 0.94-0.68 1.48-1.15v-8.34c0-0.59-0.02-1.05-0.07-1.41s-0.15-0.62-0.32-0.82 -0.43-0.33-0.77-0.41c-0.34-0.08-0.82-0.13-1.42-0.16V6.99c1.3-0.12 2.48-0.28 3.55-0.48 1.06-0.2 2.06-0.42 3-0.65l0.72 0.9v12.31c0 0.4 0.01 0.74 0.02 1.01 0.01 0.27 0.04 0.49 0.07 0.66s0.08 0.32 0.14 0.42 0.13 0.19 0.23 0.25c0.16 0.1 0.37 0.13 0.65 0.07s0.75-0.23 1.42-0.52L114.32 22.42z"/>
  <path d="M134.74 22.42c-0.55 0.38-1.12 0.74-1.71 1.07s-1.15 0.64-1.68 0.89 -1.01 0.45-1.44 0.6 -0.77 0.22-1.01 0.22c-0.48 0-0.89-0.27-1.22-0.82s-0.53-1.31-0.6-2.28c-0.59 0.59-1.17 1.08-1.77 1.48s-1.16 0.72-1.72 0.96 -1.08 0.41-1.59 0.52 -0.97 0.16-1.39 0.16c-0.55 0-1.08-0.09-1.61-0.28s-1-0.47-1.43-0.84 -0.76-0.84-1.02-1.41 -0.39-1.23-0.39-1.98c0-0.88 0.16-1.64 0.48-2.26 0.32-0.62 0.72-1.17 1.2-1.65 0.31-0.31 0.67-0.61 1.08-0.91s0.96-0.58 1.64-0.85 1.54-0.54 2.58-0.79 2.34-0.5 3.92-0.73v-2.31c0-0.4-0.04-0.78-0.12-1.12 -0.08-0.34-0.21-0.64-0.41-0.89 -0.19-0.25-0.46-0.44-0.78-0.58s-0.73-0.2-1.23-0.2c-0.31 0-0.62 0.06-0.94 0.18s-0.59 0.28-0.82 0.5 -0.42 0.48-0.56 0.78c-0.14 0.31-0.19 0.65-0.15 1.05 0.01 0.08-0.09 0.18-0.31 0.29s-0.5 0.24-0.84 0.36c-0.34 0.12-0.71 0.25-1.12 0.37 -0.41 0.12-0.8 0.23-1.18 0.31 -0.38 0.09-0.72 0.15-1.02 0.2 -0.3 0.05-0.5 0.06-0.6 0.03l-0.41-1.05c0.31-0.78 0.8-1.51 1.48-2.18 0.67-0.67 1.46-1.26 2.35-1.76 0.9-0.5 1.88-0.89 2.94-1.18 1.06-0.29 2.13-0.43 3.21-0.43 0.9 0 1.67 0.12 2.32 0.35s1.19 0.56 1.61 0.99c0.42 0.42 0.74 0.92 0.95 1.49 0.21 0.57 0.31 1.19 0.31 1.86v9.41c0 0.55 0.07 0.94 0.22 1.17s0.33 0.35 0.57 0.35c0.09 0 0.19-0.01 0.28-0.02s0.22-0.04 0.35-0.08 0.3-0.09 0.48-0.17 0.4-0.16 0.66-0.26L134.74 22.42zM122.94 21.78c0.25 0 0.51-0.03 0.78-0.09s0.58-0.16 0.91-0.31 0.7-0.36 1.09-0.62 0.84-0.61 1.34-1.02V15.41c-0.78 0.13-1.44 0.26-1.97 0.38 -0.53 0.12-0.98 0.25-1.35 0.38 -0.36 0.13-0.66 0.27-0.89 0.41 -0.23 0.14-0.43 0.3-0.6 0.47 -0.34 0.34-0.61 0.7-0.82 1.09s-0.31 0.86-0.31 1.41c0 0.44 0.06 0.81 0.19 1.09s0.28 0.52 0.47 0.68 0.39 0.29 0.6 0.35S122.77 21.78 122.94 21.78z"/>
  <path d="M152.02 12.09c0 1-0.22 1.92-0.66 2.74 -0.44 0.83-1.03 1.54-1.78 2.13 -0.74 0.59-1.6 1.06-2.58 1.39s-2 0.5-3.09 0.5h-0.19c-0.49 0.46-0.81 0.82-0.95 1.1 -0.14 0.28-0.2 0.46-0.2 0.54 0 0.12 0.04 0.23 0.12 0.34s0.26 0.22 0.56 0.33 0.74 0.23 1.33 0.34 1.4 0.24 2.41 0.37c1.52 0.2 2.79 0.43 3.79 0.71s1.8 0.62 2.39 1.01 1.01 0.84 1.24 1.35 0.35 1.08 0.35 1.72c0 0.61-0.14 1.22-0.42 1.84s-0.67 1.2-1.16 1.77 -1.07 1.09-1.74 1.57 -1.38 0.9-2.16 1.26 -1.58 0.64-2.42 0.84 -1.68 0.3-2.51 0.3c-0.68 0-1.38-0.04-2.12-0.13s-1.46-0.22-2.17-0.4 -1.38-0.41-2.02-0.69 -1.2-0.62-1.68-1.02 -0.87-0.85-1.15-1.36 -0.43-1.07-0.43-1.7c0-0.32 0.07-0.66 0.21-1s0.39-0.7 0.75-1.08 0.86-0.8 1.49-1.25 1.45-0.95 2.45-1.49c-1.48-0.6-2.23-1.24-2.23-1.91 0-0.14 0.06-0.33 0.19-0.58s0.33-0.52 0.61-0.84c0.28-0.32 0.65-0.67 1.1-1.06s1.01-0.81 1.66-1.25c-0.73-0.19-1.39-0.47-1.99-0.82s-1.11-0.77-1.53-1.25c-0.42-0.48-0.75-1.02-0.99-1.62 -0.23-0.6-0.35-1.24-0.35-1.93 0-0.95 0.23-1.85 0.7-2.7 0.47-0.85 1.09-1.59 1.88-2.23 0.78-0.63 1.69-1.13 2.73-1.5s2.12-0.56 3.25-0.56c0.9 0 1.74 0.12 2.52 0.37 0.78 0.25 1.48 0.58 2.11 1 1.13-0.14 2.16-0.36 3.08-0.64 0.92-0.29 1.64-0.53 2.18-0.72l0.55 0.72c-0.04 0.14-0.1 0.31-0.19 0.51s-0.18 0.39-0.27 0.6c-0.1 0.2-0.2 0.4-0.31 0.61 -0.11 0.2-0.22 0.38-0.34 0.54 -0.44 0.08-0.89 0.14-1.35 0.2 -0.46 0.05-0.96 0.09-1.5 0.12 0.27 0.46 0.49 0.93 0.64 1.42S152.02 11.56 152.02 12.09zM145.34 25.43c-0.62-0.08-1.21-0.17-1.76-0.27s-1.06-0.21-1.54-0.31c-0.6 0.42-1.07 0.79-1.42 1.11s-0.6 0.62-0.77 0.89 -0.28 0.51-0.32 0.72 -0.07 0.42-0.07 0.62c0 0.43 0.16 0.84 0.48 1.24s0.76 0.75 1.32 1.05 1.22 0.54 1.98 0.71 1.59 0.26 2.47 0.26c0.77 0 1.43-0.09 1.99-0.28s1.02-0.45 1.4-0.77 0.65-0.7 0.83-1.11 0.27-0.85 0.27-1.31c0-0.25-0.06-0.49-0.18-0.74s-0.35-0.48-0.7-0.7 -0.85-0.43-1.48-0.61S146.36 25.56 145.34 25.43zM147.52 12.89c0-0.66-0.09-1.29-0.26-1.86 -0.18-0.58-0.43-1.08-0.77-1.51s-0.76-0.77-1.26-1.02 -1.08-0.38-1.75-0.38c-0.32 0-0.66 0.08-1 0.23 -0.34 0.15-0.64 0.38-0.92 0.67 -0.27 0.3-0.5 0.68-0.67 1.13 -0.18 0.46-0.26 0.99-0.26 1.6 0 0.65 0.08 1.27 0.23 1.85 0.16 0.58 0.4 1.08 0.73 1.51s0.75 0.77 1.26 1.02 1.11 0.38 1.82 0.38c0.38 0 0.74-0.07 1.08-0.22 0.35-0.15 0.65-0.37 0.91-0.67 0.26-0.3 0.47-0.67 0.63-1.12S147.52 13.5 147.52 12.89z"/>
  <path d="M172.05 13.87c-0.12 0.13-0.29 0.27-0.51 0.43s-0.46 0.31-0.72 0.45c-0.26 0.14-0.52 0.28-0.79 0.41 -0.27 0.13-0.5 0.23-0.71 0.31h-9.24c0.03 0.94 0.15 1.8 0.38 2.59 0.23 0.79 0.55 1.47 0.97 2.04 0.42 0.57 0.92 1.02 1.51 1.34s1.27 0.48 2.04 0.48c0.4 0 0.8-0.02 1.18-0.07s0.8-0.15 1.25-0.32 0.95-0.41 1.51-0.71 1.22-0.73 1.99-1.26c0.08 0.04 0.17 0.12 0.28 0.23s0.22 0.24 0.31 0.38 0.19 0.26 0.26 0.38 0.13 0.2 0.16 0.25c-0.9 0.91-1.71 1.65-2.42 2.23s-1.4 1.02-2.06 1.34 -1.31 0.54-1.96 0.65 -1.37 0.18-2.15 0.18c-1.11 0-2.15-0.22-3.13-0.66s-1.84-1.07-2.58-1.87 -1.32-1.78-1.75-2.91 -0.64-2.39-0.64-3.77c0-1.77 0.34-3.35 1.01-4.74s1.68-2.57 3.02-3.54c0.34-0.25 0.72-0.48 1.14-0.71 0.42-0.23 0.87-0.42 1.33-0.59 0.46-0.16 0.94-0.29 1.44-0.39s0.99-0.15 1.48-0.15c1.28 0 2.38 0.22 3.31 0.66 0.93 0.44 1.7 1.03 2.31 1.77 0.61 0.74 1.06 1.59 1.35 2.55C171.9 11.8 172.05 12.81 172.05 13.87zM163.94 8.2c-0.61 0-1.14 0.12-1.58 0.35s-0.82 0.57-1.12 1.02c-0.31 0.44-0.55 0.98-0.72 1.6s-0.3 1.33-0.38 2.11h6.5c0.3 0 0.5-0.05 0.6-0.15s0.15-0.28 0.15-0.56c0-0.39-0.05-0.84-0.16-1.34 -0.1-0.5-0.29-0.98-0.56-1.43s-0.62-0.83-1.06-1.14S164.6 8.2 163.94 8.2z"/>
  <path d="M188.59 19.08c0 0.93-0.14 1.72-0.42 2.37s-0.64 1.21-1.09 1.67 -0.95 0.82-1.51 1.09 -1.13 0.48-1.71 0.63 -1.13 0.24-1.66 0.28 -0.98 0.07-1.36 0.07c-0.42 0-0.87-0.03-1.36-0.09s-0.99-0.15-1.49-0.26 -1.01-0.27-1.51-0.45 -0.97-0.39-1.4-0.62c-0.09-0.04-0.16-0.27-0.2-0.69s-0.06-0.93-0.05-1.51 0.05-1.2 0.11-1.84c0.06-0.64 0.15-1.2 0.28-1.68l1.58 0.22c0.13 0.69 0.35 1.32 0.65 1.88s0.66 1.03 1.07 1.43 0.88 0.69 1.4 0.91 1.05 0.32 1.61 0.32c0.94 0 1.63-0.17 2.09-0.51s0.68-0.9 0.68-1.68c0-0.52-0.13-0.99-0.4-1.41 -0.27-0.42-0.62-0.8-1.06-1.15s-0.94-0.68-1.5-0.99c-0.56-0.31-1.14-0.61-1.74-0.93 -0.55-0.27-1.09-0.58-1.63-0.91s-1.02-0.7-1.45-1.11 -0.78-0.86-1.05-1.36c-0.27-0.49-0.41-1.05-0.41-1.68 0-0.81 0.2-1.53 0.6-2.18s0.92-1.19 1.57-1.64 1.39-0.79 2.23-1.03c0.83-0.24 1.69-0.36 2.58-0.36 0.56 0 1.12 0.04 1.69 0.11 0.57 0.07 1.11 0.17 1.63 0.3 0.52 0.13 1 0.29 1.45 0.47 0.44 0.18 0.81 0.39 1.11 0.63 0.08 0.07 0.1 0.28 0.05 0.65s-0.13 0.79-0.25 1.25c-0.12 0.46-0.27 0.92-0.44 1.36 -0.17 0.44-0.33 0.77-0.49 0.98l-1.35-0.16c-0.32-1.15-0.79-2.02-1.41-2.63s-1.35-0.91-2.21-0.91c-0.78 0-1.39 0.18-1.82 0.54 -0.43 0.36-0.64 0.81-0.64 1.36 0 0.42 0.1 0.79 0.31 1.11 0.21 0.33 0.51 0.63 0.89 0.92 0.38 0.29 0.85 0.58 1.41 0.87s1.18 0.62 1.87 0.99c0.56 0.29 1.13 0.59 1.7 0.92 0.57 0.33 1.09 0.7 1.54 1.12 0.46 0.42 0.83 0.91 1.11 1.45C188.45 17.72 188.59 18.35 188.59 19.08z"/>
</g>
<g class="logo-subtitle">
  <path d="M52.48 43.06c0 0.33-0.04 0.65-0.13 0.96s-0.21 0.61-0.37 0.89c-0.16 0.28-0.35 0.54-0.57 0.77 -0.22 0.24-0.46 0.44-0.73 0.61 -0.27 0.17-0.55 0.3-0.86 0.4 -0.3 0.1-0.62 0.14-0.94 0.14 -0.5 0-0.96-0.09-1.37-0.26s-0.76-0.42-1.05-0.73c-0.29-0.31-0.51-0.67-0.67-1.1 -0.16-0.43-0.24-0.89-0.24-1.38 0-0.48 0.09-0.95 0.27-1.41s0.43-0.86 0.75-1.21 0.7-0.63 1.14-0.85c0.44-0.21 0.93-0.32 1.45-0.32 0.5 0 0.95 0.09 1.36 0.26s0.76 0.42 1.05 0.73c0.29 0.31 0.51 0.68 0.67 1.1S52.48 42.56 52.48 43.06zM50.63 43.39c0-0.39-0.04-0.75-0.12-1.1 -0.08-0.35-0.19-0.66-0.34-0.92 -0.15-0.27-0.32-0.48-0.53-0.63 -0.21-0.16-0.44-0.23-0.68-0.23 -0.3 0-0.55 0.07-0.75 0.2 -0.2 0.13-0.36 0.32-0.48 0.56 -0.12 0.24-0.2 0.52-0.25 0.84 -0.05 0.33-0.07 0.68-0.07 1.05 0 0.39 0.05 0.75 0.14 1.08 0.09 0.34 0.21 0.63 0.37 0.88 0.15 0.25 0.33 0.45 0.53 0.59 0.2 0.14 0.42 0.22 0.64 0.22 0.29 0 0.54-0.06 0.73-0.17s0.35-0.28 0.48-0.49c0.12-0.21 0.21-0.48 0.26-0.79C50.61 44.15 50.63 43.79 50.63 43.39z"/>
  <path d="M59.33 35.96c0 0.05-0.02 0.12-0.07 0.19 -0.05 0.08-0.11 0.16-0.18 0.24 -0.07 0.09-0.16 0.17-0.25 0.26s-0.18 0.17-0.27 0.24 -0.17 0.14-0.25 0.19c-0.08 0.06-0.14 0.1-0.19 0.12 -0.23-0.29-0.46-0.5-0.68-0.63 -0.22-0.13-0.41-0.19-0.56-0.19 -0.13 0-0.25 0.04-0.36 0.12 -0.11 0.08-0.22 0.22-0.3 0.42s-0.16 0.49-0.21 0.85c-0.05 0.36-0.08 0.82-0.08 1.39v0.63h1.82l0.27 0.26c-0.04 0.08-0.1 0.17-0.16 0.26 -0.07 0.09-0.13 0.18-0.2 0.26 -0.06 0.09-0.13 0.16-0.19 0.23s-0.12 0.12-0.16 0.15c-0.11-0.06-0.27-0.12-0.48-0.17 -0.21-0.06-0.51-0.08-0.9-0.08v4.93c0 0.03 0.02 0.06 0.07 0.09 0.05 0.03 0.13 0.06 0.24 0.09 0.12 0.03 0.27 0.07 0.45 0.11 0.19 0.04 0.43 0.09 0.71 0.14v0.54h-4.2v-0.53c0.34-0.06 0.58-0.13 0.74-0.22 0.15-0.08 0.23-0.16 0.23-0.22v-4.93h-0.87l-0.2-0.26 0.57-0.65h0.51V39.57c0-0.4 0.03-0.76 0.08-1.09 0.06-0.33 0.14-0.62 0.24-0.89 0.11-0.27 0.23-0.51 0.39-0.73 0.15-0.22 0.33-0.42 0.52-0.6 0.18-0.18 0.37-0.32 0.56-0.45 0.19-0.12 0.38-0.23 0.57-0.31 0.19-0.08 0.37-0.14 0.55-0.18s0.34-0.06 0.49-0.06c0.22 0 0.44 0.03 0.65 0.09 0.21 0.06 0.4 0.13 0.56 0.2 0.16 0.08 0.3 0.15 0.4 0.23S59.33 35.92 59.33 35.96z"/>
  <path d="M61.65 46.61v-0.53c0.36-0.04 0.61-0.11 0.77-0.2 0.16-0.09 0.23-0.17 0.23-0.24v-7.18c-0.32-0.3-0.65-0.48-1-0.53V37.38h2.04c0.07 0 0.13 0.01 0.18 0.02 0.05 0.01 0.09 0.04 0.14 0.08 0.05 0.04 0.1 0.1 0.16 0.17 0.06 0.08 0.13 0.18 0.22 0.3l4.48 6.21v-5.79c0-0.03-0.02-0.06-0.05-0.1 -0.03-0.04-0.08-0.08-0.16-0.12 -0.08-0.04-0.18-0.08-0.31-0.12 -0.13-0.04-0.29-0.07-0.49-0.1V37.38h3.11v0.54c-0.35 0.05-0.61 0.12-0.77 0.21s-0.24 0.17-0.24 0.24v8.46c-0.47-0.04-0.84-0.13-1.13-0.27 -0.28-0.14-0.49-0.31-0.62-0.49l-4.47-6.2v5.76c0 0.03 0.02 0.06 0.05 0.11 0.03 0.04 0.09 0.08 0.17 0.12 0.08 0.04 0.18 0.08 0.31 0.12s0.29 0.07 0.48 0.1v0.54H61.65z"/>
  <path d="M77.62 42.58c-0.04 0.05-0.11 0.1-0.19 0.16s-0.17 0.12-0.27 0.17c-0.1 0.06-0.2 0.11-0.3 0.15 -0.1 0.05-0.19 0.09-0.27 0.12h-3.46c0.01 0.35 0.06 0.68 0.14 0.97 0.09 0.3 0.21 0.55 0.36 0.77s0.35 0.38 0.57 0.5c0.22 0.12 0.48 0.18 0.77 0.18 0.15 0 0.3-0.01 0.44-0.02 0.14-0.02 0.3-0.06 0.47-0.12 0.17-0.06 0.36-0.15 0.57-0.27 0.21-0.11 0.46-0.27 0.75-0.47 0.03 0.01 0.06 0.04 0.11 0.09 0.04 0.04 0.08 0.09 0.12 0.14 0.04 0.05 0.07 0.1 0.1 0.14s0.05 0.08 0.06 0.1c-0.34 0.34-0.64 0.62-0.91 0.83 -0.27 0.22-0.53 0.38-0.77 0.5 -0.25 0.12-0.49 0.2-0.74 0.25 -0.24 0.04-0.51 0.07-0.81 0.07 -0.41 0-0.81-0.08-1.18-0.25s-0.69-0.4-0.97-0.7 -0.49-0.67-0.65-1.09c-0.16-0.42-0.24-0.9-0.24-1.41 0-0.66 0.13-1.26 0.38-1.78 0.25-0.52 0.63-0.96 1.13-1.33 0.13-0.09 0.27-0.18 0.43-0.27 0.16-0.08 0.33-0.16 0.5-0.22 0.17-0.06 0.35-0.11 0.54-0.15 0.19-0.04 0.37-0.05 0.56-0.05 0.48 0 0.89 0.08 1.24 0.25 0.35 0.17 0.64 0.39 0.86 0.66 0.23 0.28 0.4 0.6 0.51 0.96C77.57 41.81 77.62 42.19 77.62 42.58zM74.58 40.46c-0.23 0-0.43 0.04-0.59 0.13s-0.31 0.22-0.42 0.38c-0.11 0.17-0.2 0.37-0.27 0.6 -0.06 0.23-0.11 0.5-0.14 0.79h2.44c0.11 0 0.19-0.02 0.22-0.05 0.04-0.04 0.06-0.11 0.06-0.21 0-0.15-0.02-0.31-0.06-0.5 -0.04-0.19-0.11-0.37-0.21-0.53 -0.1-0.17-0.23-0.31-0.4-0.43S74.83 40.46 74.58 40.46z"/>
  <path d="M88.46 40.33c-0.14 0.04-0.25 0.07-0.33 0.1 -0.08 0.03-0.15 0.06-0.21 0.1 -0.05 0.03-0.09 0.07-0.12 0.11 -0.03 0.04-0.05 0.09-0.07 0.15l-1.62 5.39c-0.03 0.11-0.09 0.2-0.18 0.27 -0.09 0.08-0.19 0.14-0.3 0.19 -0.11 0.05-0.22 0.09-0.32 0.12 -0.1 0.03-0.19 0.05-0.25 0.07l-1.87-4.28 -1.49 3.63c-0.04 0.11-0.1 0.21-0.19 0.28 -0.09 0.08-0.18 0.14-0.29 0.19 -0.1 0.05-0.2 0.09-0.31 0.12 -0.1 0.03-0.19 0.05-0.25 0.06l-1.97-6.04c-0.03-0.09-0.11-0.17-0.24-0.25 -0.13-0.08-0.32-0.15-0.56-0.2v-0.53h3.32v0.53c-0.21 0.03-0.37 0.05-0.49 0.09 -0.12 0.03-0.2 0.07-0.25 0.11 -0.05 0.04-0.08 0.09-0.08 0.13 0 0.05 0 0.09 0.02 0.13l1.1 3.46 1.75-4.45h0.56l1.84 4.45 1.06-3.46c0.02-0.05 0.03-0.1 0.03-0.15 0-0.04-0.02-0.08-0.07-0.12 -0.04-0.04-0.11-0.07-0.2-0.1 -0.09-0.03-0.23-0.06-0.39-0.09v-0.53h2.38V40.33z"/>
  <path d="M94.52 46.61v-0.53c0.22-0.04 0.4-0.09 0.55-0.14 0.15-0.05 0.27-0.1 0.36-0.14 0.09-0.05 0.15-0.09 0.19-0.13 0.04-0.04 0.06-0.08 0.06-0.11v-2.81c-0.18-0.39-0.37-0.79-0.59-1.21 -0.22-0.41-0.44-0.82-0.67-1.2 -0.22-0.39-0.44-0.75-0.66-1.08s-0.41-0.61-0.58-0.84c-0.04-0.05-0.09-0.1-0.14-0.15 -0.05-0.04-0.11-0.08-0.2-0.11s-0.19-0.05-0.31-0.07c-0.13-0.02-0.29-0.03-0.5-0.03l-0.03-0.53c0.14-0.02 0.3-0.04 0.49-0.06 0.18-0.02 0.37-0.05 0.55-0.07s0.35-0.04 0.51-0.05c0.16-0.02 0.29-0.02 0.39-0.02 0.14 0 0.27 0.03 0.41 0.09s0.25 0.14 0.33 0.25c0.18 0.24 0.37 0.52 0.57 0.84 0.2 0.31 0.4 0.65 0.6 1 0.2 0.35 0.4 0.71 0.59 1.08 0.19 0.37 0.38 0.73 0.55 1.08l1.71-3.24c0.07-0.13 0.05-0.23-0.07-0.3 -0.12-0.07-0.37-0.13-0.74-0.18V37.38h3.06v0.54c-0.33 0.06-0.58 0.13-0.74 0.2s-0.28 0.16-0.34 0.28l-2.35 4.38v2.77c0 0.03 0.02 0.07 0.05 0.11 0.03 0.04 0.1 0.09 0.18 0.14s0.21 0.1 0.36 0.15c0.15 0.05 0.34 0.1 0.57 0.14v0.54H94.52z"/>
  <path d="M106.93 43.06c0 0.33-0.04 0.65-0.13 0.96s-0.21 0.61-0.37 0.89c-0.16 0.28-0.35 0.54-0.57 0.77 -0.22 0.24-0.46 0.44-0.73 0.61 -0.27 0.17-0.55 0.3-0.86 0.4 -0.3 0.1-0.62 0.14-0.94 0.14 -0.5 0-0.96-0.09-1.37-0.26s-0.76-0.42-1.05-0.73c-0.29-0.31-0.51-0.67-0.67-1.1 -0.16-0.43-0.24-0.89-0.24-1.38 0-0.48 0.09-0.95 0.27-1.41 0.18-0.45 0.43-0.86 0.75-1.21 0.32-0.35 0.7-0.63 1.14-0.85 0.44-0.21 0.93-0.32 1.45-0.32 0.5 0 0.95 0.09 1.36 0.26 0.41 0.18 0.76 0.42 1.05 0.73 0.29 0.31 0.51 0.68 0.67 1.1S106.93 42.56 106.93 43.06zM105.09 43.39c0-0.39-0.04-0.75-0.12-1.1 -0.08-0.35-0.19-0.66-0.34-0.92 -0.15-0.27-0.32-0.48-0.53-0.63 -0.21-0.16-0.44-0.23-0.68-0.23 -0.3 0-0.56 0.07-0.75 0.2 -0.2 0.13-0.36 0.32-0.48 0.56 -0.12 0.24-0.2 0.52-0.25 0.84 -0.05 0.33-0.07 0.68-0.07 1.05 0 0.39 0.05 0.75 0.14 1.08 0.09 0.34 0.21 0.63 0.37 0.88 0.15 0.25 0.33 0.45 0.53 0.59 0.2 0.14 0.42 0.22 0.64 0.22 0.29 0 0.54-0.06 0.73-0.17s0.35-0.28 0.48-0.49c0.12-0.21 0.21-0.48 0.26-0.79C105.06 44.15 105.09 43.79 105.09 43.39z"/>
  <path d="M113.67 39.9c0.03 0.02 0.05 0.08 0.05 0.19 0 0.11-0.01 0.23-0.03 0.39 -0.02 0.15-0.05 0.32-0.09 0.51 -0.04 0.19-0.08 0.37-0.12 0.54 -0.04 0.18-0.09 0.34-0.14 0.49s-0.09 0.27-0.13 0.36h-0.53c-0.02-0.19-0.04-0.38-0.09-0.56 -0.04-0.18-0.1-0.33-0.16-0.46 -0.07-0.13-0.15-0.23-0.24-0.31 -0.09-0.08-0.2-0.11-0.32-0.11 -0.1 0-0.2 0.02-0.32 0.06 -0.11 0.04-0.24 0.11-0.36 0.21 -0.13 0.11-0.26 0.26-0.4 0.45 -0.14 0.2-0.28 0.46-0.43 0.78v3.2c0 0.07 0.1 0.15 0.3 0.23 0.2 0.08 0.53 0.15 0.99 0.22v0.54h-4.02v-0.53c0.65-0.15 0.97-0.29 0.97-0.45v-3.88c0-0.16 0-0.3-0.01-0.41 -0.01-0.11-0.02-0.2-0.04-0.27 -0.02-0.07-0.03-0.12-0.06-0.16 -0.02-0.04-0.04-0.07-0.06-0.09 -0.04-0.03-0.07-0.06-0.11-0.08 -0.04-0.02-0.08-0.04-0.14-0.05 -0.06-0.01-0.13-0.02-0.22-0.03 -0.09-0.01-0.2-0.02-0.34-0.02v-0.51c0.27-0.04 0.5-0.07 0.7-0.11 0.2-0.03 0.38-0.07 0.55-0.11s0.34-0.08 0.5-0.13c0.16-0.05 0.35-0.11 0.55-0.18l0.31 0.31 0.1 1.06c0.13-0.19 0.28-0.37 0.45-0.53s0.34-0.31 0.53-0.44c0.19-0.12 0.39-0.22 0.59-0.29 0.21-0.07 0.41-0.11 0.62-0.11 0.19 0 0.38 0.03 0.58 0.08C113.3 39.72 113.49 39.8 113.67 39.9z"/>
  <path d="M113.82 46.61v-0.53c0.32-0.08 0.56-0.15 0.73-0.22 0.16-0.06 0.24-0.14 0.24-0.23v-8.29c0-0.22-0.01-0.4-0.03-0.52 -0.02-0.12-0.07-0.21-0.13-0.27 -0.07-0.06-0.17-0.1-0.29-0.12 -0.13-0.02-0.3-0.04-0.51-0.07v-0.51c0.47-0.07 0.91-0.15 1.31-0.23 0.4-0.09 0.76-0.2 1.1-0.35l0.32 0.3v7.14l1.93-1.72c0.16-0.15 0.27-0.26 0.31-0.35 0.05-0.08 0.05-0.15 0.02-0.19 -0.03-0.04-0.1-0.07-0.2-0.08 -0.1-0.01-0.21-0.02-0.34-0.02v-0.53h3.27v0.53c-0.22 0.03-0.44 0.08-0.65 0.15 -0.21 0.08-0.42 0.2-0.63 0.35l-2.23 1.69 2.65 3c0.07 0.08 0.14 0.14 0.2 0.19 0.07 0.05 0.14 0.08 0.22 0.1 0.08 0.02 0.18 0.03 0.28 0.04 0.1 0 0.23 0 0.37-0.01l0.05 0.53c-0.14 0.04-0.3 0.07-0.48 0.11 -0.18 0.04-0.35 0.07-0.52 0.1 -0.17 0.03-0.32 0.06-0.45 0.08 -0.13 0.02-0.23 0.03-0.27 0.03 -0.2 0-0.38-0.03-0.52-0.09 -0.14-0.06-0.27-0.16-0.37-0.3l-2.62-3.47v2.81c0 0.04 0.01 0.07 0.03 0.1 0.02 0.03 0.05 0.06 0.11 0.09 0.05 0.03 0.13 0.07 0.24 0.11 0.11 0.04 0.25 0.09 0.43 0.15v0.54H113.82z"/>
  <path d="M133.01 45.06c-0.31 0.32-0.62 0.59-0.92 0.81 -0.3 0.23-0.6 0.41-0.9 0.55 -0.3 0.14-0.59 0.24-0.88 0.31 -0.29 0.06-0.57 0.1-0.85 0.1 -0.49 0-0.97-0.1-1.44-0.31 -0.47-0.2-0.88-0.5-1.25-0.89 -0.36-0.38-0.65-0.86-0.87-1.42 -0.22-0.56-0.33-1.19-0.33-1.9 0-0.78 0.12-1.49 0.36-2.12s0.57-1.18 0.99-1.63c0.42-0.45 0.91-0.8 1.48-1.04 0.56-0.24 1.18-0.36 1.83-0.36 0.26 0 0.53 0.02 0.78 0.06s0.51 0.09 0.74 0.16c0.23 0.07 0.45 0.14 0.64 0.23 0.19 0.09 0.35 0.18 0.48 0.29 0.02 0.02 0.02 0.06 0 0.13 -0.02 0.07-0.05 0.16-0.1 0.26s-0.1 0.21-0.16 0.33c-0.06 0.12-0.12 0.23-0.19 0.35 -0.06 0.11-0.12 0.21-0.18 0.3 -0.06 0.09-0.1 0.15-0.14 0.19l-0.48-0.1c-0.25-0.43-0.53-0.74-0.85-0.93 -0.32-0.19-0.67-0.29-1.05-0.29 -0.17 0-0.34 0.03-0.52 0.08 -0.18 0.05-0.35 0.14-0.52 0.26s-0.33 0.28-0.49 0.48c-0.15 0.2-0.29 0.44-0.4 0.73 -0.11 0.29-0.2 0.63-0.27 1.02 -0.06 0.39-0.1 0.84-0.1 1.35 0 0.63 0.08 1.16 0.25 1.61 0.16 0.45 0.38 0.82 0.64 1.11 0.26 0.29 0.55 0.51 0.88 0.65 0.32 0.14 0.65 0.21 0.97 0.21 0.13 0 0.29-0.02 0.47-0.04 0.18-0.03 0.37-0.08 0.59-0.16 0.21-0.08 0.44-0.19 0.68-0.32 0.24-0.13 0.49-0.31 0.75-0.52 0.02 0.02 0.06 0.05 0.1 0.1 0.04 0.05 0.08 0.1 0.11 0.15 0.04 0.05 0.07 0.1 0.1 0.15C132.98 45.02 133 45.05 133.01 45.06z"/>
  <path d="M133.55 46.61v-0.53c0.33-0.07 0.58-0.14 0.73-0.22 0.16-0.08 0.23-0.15 0.23-0.22v-3.76c0-0.25 0-0.45-0.01-0.6 0-0.15-0.04-0.27-0.09-0.36 -0.06-0.09-0.15-0.15-0.28-0.19 -0.13-0.04-0.33-0.07-0.59-0.09v-0.51c0.42-0.06 0.82-0.13 1.19-0.22 0.38-0.09 0.73-0.19 1.06-0.31h0.47v6.05c0 0.06 0.07 0.13 0.22 0.22 0.15 0.09 0.4 0.16 0.75 0.23v0.54H133.55zM136.56 37.37c0 0.17-0.03 0.32-0.1 0.46s-0.15 0.25-0.26 0.35c-0.11 0.1-0.24 0.17-0.39 0.23 -0.15 0.05-0.31 0.08-0.49 0.08 -0.14 0-0.27-0.02-0.39-0.05 -0.12-0.03-0.23-0.08-0.32-0.15 -0.09-0.07-0.16-0.15-0.22-0.25 -0.05-0.1-0.08-0.22-0.08-0.36 0-0.17 0.03-0.32 0.1-0.45 0.06-0.14 0.15-0.25 0.26-0.35 0.11-0.1 0.24-0.17 0.39-0.22 0.15-0.05 0.31-0.08 0.48-0.08 0.13 0 0.26 0.02 0.38 0.05 0.12 0.03 0.23 0.08 0.32 0.15 0.09 0.07 0.17 0.15 0.22 0.25C136.53 37.11 136.56 37.23 136.56 37.37z"/>
  <path d="M142.69 45.47c-0.65 0.47-1.2 0.81-1.65 1.03 -0.45 0.22-0.8 0.33-1.06 0.33 -0.21 0-0.41-0.04-0.6-0.12 -0.19-0.08-0.35-0.2-0.49-0.37 -0.14-0.16-0.25-0.37-0.33-0.63 -0.08-0.25-0.12-0.55-0.12-0.89v-4.11h-0.89l-0.21-0.26 0.57-0.65h0.53v-1.53l1.48-1.09 0.28 0.24v2.38h2.23l0.26 0.26c-0.04 0.08-0.1 0.17-0.16 0.26 -0.06 0.09-0.13 0.18-0.2 0.26 -0.07 0.09-0.14 0.16-0.2 0.23 -0.07 0.07-0.12 0.12-0.17 0.15 -0.06-0.03-0.13-0.06-0.22-0.09 -0.09-0.03-0.19-0.06-0.3-0.08 -0.11-0.03-0.23-0.05-0.35-0.06 -0.12-0.01-0.25-0.02-0.38-0.02h-0.49v3.43c0 0.25 0.02 0.46 0.05 0.63 0.03 0.17 0.07 0.31 0.13 0.42 0.06 0.1 0.12 0.18 0.2 0.23 0.08 0.05 0.16 0.07 0.25 0.07 0.09 0 0.18-0.01 0.27-0.02 0.1-0.02 0.2-0.04 0.33-0.08s0.26-0.09 0.41-0.16c0.15-0.07 0.33-0.16 0.54-0.27L142.69 45.47z"/>
  <path d="M150.37 40.33c-0.15 0.04-0.27 0.07-0.36 0.1s-0.17 0.06-0.23 0.1c-0.06 0.04-0.1 0.08-0.13 0.13 -0.03 0.05-0.06 0.11-0.08 0.18l-2.45 6.33c-0.21 0.54-0.44 1-0.68 1.39s-0.5 0.7-0.78 0.95 -0.56 0.43-0.86 0.55 -0.6 0.18-0.91 0.18c-0.19 0-0.37-0.02-0.55-0.05s-0.34-0.08-0.48-0.13c-0.14-0.05-0.25-0.11-0.34-0.16 -0.08-0.06-0.13-0.11-0.13-0.15 0-0.04 0.04-0.13 0.12-0.25 0.08-0.12 0.18-0.26 0.3-0.4 0.12-0.14 0.23-0.28 0.36-0.4 0.12-0.13 0.22-0.22 0.3-0.26 0.24 0.16 0.49 0.25 0.74 0.29 0.25 0.04 0.46 0.02 0.64-0.05 0.18-0.06 0.37-0.2 0.58-0.41 0.21-0.21 0.4-0.53 0.57-0.95l0.21-0.51 -2.45-5.95c-0.05-0.13-0.14-0.23-0.26-0.31 -0.12-0.07-0.31-0.14-0.55-0.19v-0.53h3.32v0.53c-0.19 0.03-0.34 0.05-0.44 0.08 -0.1 0.03-0.18 0.06-0.22 0.1 -0.04 0.04-0.06 0.08-0.06 0.13 0.01 0.05 0.02 0.12 0.06 0.19l1.51 3.68 1.44-3.68c0.03-0.07 0.05-0.13 0.06-0.19 0.01-0.05-0.01-0.09-0.04-0.13 -0.04-0.04-0.1-0.07-0.19-0.09 -0.09-0.03-0.22-0.06-0.39-0.08v-0.53h2.4V40.33z"/>
</g>
</svg>
