<svg xmlns="http://www.w3.org/2000/svg" viewBox="0 0 437.2 121.6">
  <g transform="translate(-153.4 -340)">
    <path id="accent" d="M164.8 411.1h414.4" fill-rule="evenodd" stroke="gold" stroke-width="4" fill="gold"/>
    <g id="title" fill="#020202">
      <path d="M53.1 213.1l-.4 3.6-.4 3.5-.4 2.9-.4 1.9H15V222q2.7-.5 4-1.1 1.3-.7 1.3-1.3V181q0-.4-1.2-1.1-1.3-.7-4.1-1.3v-2.8h20.5v2.8q-2.6.6-4 1.2-1.4.7-1.4 1.2v36.4q0 .7.3 1.3.4.5 1.2.8.8.4 2.2.6 1.4.2 3.6.2h4.4q1.8 0 3-.4 1.3-.5 2.2-1.4 1-1 1.7-2.5.8-1.6 1.6-4l2.8 1.1zM70.2 219.3l1.6-.2 1.7-.6q1-.4 2.2-1.2l2.7-2.1v-8.6l-4 .7-2.6.8-1.8.8q-.7.4-1.2 1-1 1-1.6 2.1t-.6 2.8q0 1.4.3 2.2.4.9 1 1.4.5.5 1.2.7l1 .2zm23.6 1.3l-3.5 2.1-3.3 1.8q-1.6.8-3 1.2-1.2.4-1.9.4-1.4 0-2.5-1.6-1-1.6-1.1-4.6-1.8 1.8-3.6 3-1.7 1.2-3.4 2l-3.2 1-2.8.2q-1.6 0-3.2-.6-1.6-.5-2.9-1.6-1.2-1.1-2-2.8-.8-1.7-.8-4 0-2.6 1-4.5t2.4-3.3q1-1 2.1-1.8 1.3-.9 3.3-1.7 2-.8 5.2-1.6 3.1-.8 7.8-1.5v-4.6q0-1.2-.2-2.2-.2-1-.8-1.8-.6-.7-1.6-1.1-1-.5-2.5-.5-.9 0-1.8.4-1 .3-1.7 1-.7.6-1.1 1.6-.4.9-.3 2 0 .3-.6.6l-1.7.8-2.2.7-2.4.6-2 .4h-1.2l-.9-2q1-2.4 3-4.4 2-2 4.7-3.5t5.9-2.4q3.2-.8 6.4-.8 2.7 0 4.7.7t3.2 2q1.2 1.2 1.9 3t.6 3.6v18.9q0 1.6.4 2.3t1.2.7h.5l.7-.2 1-.3 1.3-.5.9 2.9zM120 225v-2.9q2.8-.7 4-1.2 1.2-.6 1.2-1.1V202q0-2.1-.3-3.5-.2-1.5-.6-2.3-.5-.9-1.3-1.2-.8-.4-2-.4-.9 0-2 .3-1 .2-2.3.8-1.2.6-2.8 1.7-1.5 1-3.4 2.6v19.8q0 .6 1.3 1.2t3.9 1.2v2.8H96v-2.8q2.6-.7 3.8-1.2 1.3-.6 1.3-1.2V198v-2.4q0-1-.6-1.4-.4-.5-1.5-.8l-3-.4v-2.8l3.4-.4 3.2-.6 2.9-.8 2.8-1 1.6 1.6.4 5.7q4.6-4 8.6-5.6 4-1.7 7-1.7 1.7 0 3.2.6 1.6.5 2.8 1.7 1.2 1.1 1.9 3 .7 2 .7 4.7v22.3q0 .2.3.5l.8.5 1.6.6q1 .4 2.5.7v2.9H120zM166.8 201.5q0-2-.5-3.7-.6-1.8-1.6-3-1-1.3-2.5-2-1.5-.9-3.5-.9-1 0-2 .5-1 .4-1.8 1.3-.8 1-1.4 2.3-.5 1.4-.5 3.2 0 2 .5 3.7.4 1.7 1.4 3 1 1.3 2.6 2 1.5.8 3.6.8 1.1 0 2.1-.4 1.1-.5 1.9-1.4t1.2-2.2q.5-1.4.5-3.2zm-4.4 25l-3.5-.5-3-.6-3 2.2q-1 1-1.5 1.8t-.6 1.4l-.1 1.3q0 1.3 1 2.4.9 1.3 2.6 2.2 1.6.9 4 1.4 2.2.5 4.9.5 2.3 0 4-.6 1.6-.5 2.7-1.5 1.2-1 1.7-2.2.6-1.3.6-2.6 0-.8-.4-1.5-.4-.8-1.4-1.4-1-.7-3-1.3-1.9-.5-5-1zm13.3-26.6q0 3-1.3 5.5-1.3 2.4-3.6 4.2-2.2 1.8-5.1 2.8-3 1-6.2 1h-.4q-1.5 1.4-1.9 2.2l-.4 1q0 .4.3.8.2.3 1 .6 1 .4 2.7.7l4.8.8q4.6.5 7.6 1.4 3 .8 4.8 2 1.8 1.2 2.5 2.7.7 1.5.7 3.4t-.9 3.7q-.8 1.8-2.3 3.5-1.5 1.7-3.4 3.2-2 1.4-4.4 2.5-2.3 1-4.8 1.7-2.5.6-5 .6-2 0-4.3-.3-2.2-.2-4.3-.8-2.1-.5-4-1.4-2-.8-3.4-2t-2.3-2.7q-.9-1.5-.9-3.4 0-1 .4-2 .5-1 1.5-2.2 1.1-1.1 3-2.5l5-3q-4.5-1.8-4.5-3.8 0-.4.3-1.1.4-.8 1.2-1.7l2.3-2.1q1.3-1.2 3.3-2.5-2.2-.6-4-1.7-1.8-1-3-2.5-1.3-1.4-2-3.2-.7-1.8-.7-3.9 0-2.8 1.4-5.4 1.4-2.6 3.7-4.4 2.4-2 5.5-3 3-1.2 6.5-1.2 2.7 0 5 .8t4.2 2q3.4-.5 6.2-1.3l4.3-1.5 1.1 1.5q0 .4-.4 1l-.5 1.2-.6 1.2-.7 1q-1.3.3-2.7.4t-3 .3q.8 1.3 1.3 2.8.4 1.5.4 3zM226.8 220.6q-1.4 1-3.2 2l-3.4 1.7-2.9 1.3q-1.2.5-1.7.5-.7 0-1.3-.2-.7-.3-1.2-1-.6-.7-1-2-.5-1.2-.7-3.2-2.4 2-4.4 3.4l-3.5 2q-1.5.6-2.9.8l-2.5.2q-1.9 0-3.6-.5t-3.2-1.8q-1.4-1.4-2.3-3.7-.8-2.4-.8-6v-16l-.1-3q0-1-.5-1.5t-1.4-.7l-2.8-.4v-2.8l3.6-.3 3.1-.4 3-.7 3-.8 1.4 1.8v22.3q0 2.4.3 4 .3 1.5 1 2.3.5.9 1.3 1.2.9.3 2 .3l1.7-.2q1-.2 2.1-.7 1.2-.6 2.5-1.5 1.4-.9 3-2.3v-16.6l-.1-2.9q-.2-1-.7-1.6t-1.5-.8q-1-.3-2.8-.3v-2.8q3.9-.3 7-1 3.2-.5 6-1.2l1.5 1.8v26.6l.1 1.3.3.9.5.5q.4.3 1.3.1l2.8-1 1 2.9zM243.2 219.3l1.6-.2 1.8-.6q1-.4 2.1-1.2l2.7-2.1v-8.6l-3.9.7-2.7.8-1.8.8q-.7.4-1.2 1-1 1-1.6 2.1t-.6 2.8q0 1.4.3 2.2.4.9 1 1.4.5.5 1.2.7l1.1.2zm23.6 1.3l-3.4 2.1-3.4 1.8q-1.6.8-2.9 1.2-1.3.4-2 .4-1.4 0-2.5-1.6-1-1.6-1.1-4.6-1.8 1.8-3.6 3-1.7 1.2-3.4 2l-3.2 1-2.8.2q-1.6 0-3.2-.6-1.6-.5-2.8-1.6-1.3-1.1-2-2.8-.9-1.7-.9-4 0-2.6 1-4.5t2.4-3.3q1-1 2.1-1.8 1.3-.9 3.3-1.7 2.1-.8 5.2-1.6t7.8-1.5v-4.6q0-1.2-.2-2.2-.2-1-.8-1.8-.6-.7-1.6-1.1-1-.5-2.4-.5-1 0-2 .4-.9.3-1.6 1-.7.6-1 1.6-.5.9-.4 2 0 .3-.6.6l-1.7.8-2.2.7-2.4.6-2 .4h-1.2l-.8-2q.9-2.4 2.9-4.4 2-2 4.7-3.5t5.9-2.4q3.2-.8 6.4-.8 2.7 0 4.7.7t3.2 2q1.3 1.2 1.9 3t.6 3.6v18.9q0 1.6.4 2.3t1.2.7h.5l.7-.2 1-.3 1.3-.5.9 2.9zM293.2 201.5q0-2-.5-3.7-.6-1.8-1.6-3-1-1.3-2.5-2-1.5-.9-3.5-.9-1 0-2 .5-1 .4-1.8 1.3-.8 1-1.4 2.3-.5 1.4-.5 3.2 0 2 .5 3.7.4 1.7 1.4 3 1 1.3 2.6 2 1.5.8 3.6.8 1.1 0 2.1-.4 1.1-.5 1.9-1.4.8-.9 1.2-2.2.5-1.4.5-3.2zm-4.4 25l-3.5-.5-3-.6-3 2.2q-1 1-1.5 1.8t-.6 1.4l-.1 1.3q0 1.3.9 2.4 1 1.3 2.7 2.2 1.6.9 4 1.4 2.2.5 4.9.5 2.3 0 4-.6 1.6-.5 2.7-1.5 1.2-1 1.7-2.2t.6-2.6q0-.8-.4-1.5-.4-.8-1.4-1.4t-3-1.3q-1.9-.5-5-1zm13.4-26.6q0 3-1.3 5.5-1.4 2.5-3.6 4.3-2.2 1.7-5.2 2.7-2.9 1-6.1 1h-.4q-1.5 1.4-2 2.2l-.3 1.1.2.7q.2.3 1.1.7l2.7.6 4.8.8q4.6.6 7.6 1.4 3 .8 4.8 2 1.7 1.2 2.5 2.7.7 1.5.7 3.4t-.9 3.7q-.8 1.8-2.3 3.5-1.5 1.7-3.5 3.2-2 1.4-4.3 2.5-2.3 1-4.9 1.7-2.5.6-5 .6-2 0-4.2-.3-2.2-.2-4.4-.8-2-.5-4-1.4-1.9-.8-3.3-2-1.5-1.2-2.3-2.7-1-1.5-1-3.4 0-1 .5-2 .4-1 1.5-2.2 1.1-1.1 3-2.5 1.9-1.3 4.9-3-4.5-1.7-4.5-3.8 0-.4.4-1.1l1.2-1.7q.9-1 2.2-2.1t3.4-2.5q-2.2-.6-4-1.7-1.8-1-3.1-2.5-1.3-1.4-2-3.2-.7-1.8-.7-3.9 0-2.8 1.4-5.4 1.4-2.5 3.8-4.4 2.3-2 5.4-3 3.1-1.2 6.5-1.2 2.7 0 5 .8t4.3 2q3.4-.5 6.1-1.3l4.4-1.5 1.1 1.5-.4 1-.5 1.2-.7 1.2-.6 1-2.7.5-3 .2q.8 1.4 1.2 2.9.5 1.4.5 3zM328.4 192.2q-1.8 0-3.2.7-1.3.7-2.2 2-1 1.4-1.5 3.2-.5 2-.7 4.3h13q.9 0 1.2-.3.3-.3.3-1.1 0-1.2-.3-2.7-.3-1.5-1.2-2.9-.7-1.3-2-2.3-1.4-.9-3.4-.9zm16.2 11.3l-1 .9-1.5.9-1.6.8-1.4.6h-18.4q0 2.8.7 5.2.7 2.4 2 4 1.2 1.8 3 2.8 1.8 1 4 1 1.3 0 2.4-.2 1.2-.1 2.5-.7 1.4-.5 3-1.4 1.7-.9 4-2.5.3.1.6.5l.6.7.6.8.3.5q-2.7 2.7-4.9 4.5-2.1 1.7-4.1 2.6-2 1-4 1.3-1.9.4-4.2.4-3.3 0-6.3-1.3-3-1.4-5.2-3.8-2.1-2.4-3.4-5.8-1.3-3.4-1.3-7.6 0-5.3 2-9.4 2-4.2 6-7.1 1-.8 2.3-1.4l2.6-1.2 3-.8q1.4-.3 2.9-.3 3.8 0 6.6 1.3 2.8 1.4 4.6 3.6 1.9 2.2 2.7 5 1 3 1 6.1zM377.8 213.9q0 2.8-.9 4.8-.8 2-2.1 3.3-1.4 1.4-3 2.2-1.7.8-3.5 1.2-1.7.5-3.3.6l-2.7.1-2.7-.2q-1.5-.1-3-.5-1.5-.3-3-.9-1.5-.5-2.8-1.2-.3-.1-.5-1.4v-3l.2-3.7.5-3.4 3.2.5q.4 2 1.3 3.7.9 1.7 2.1 2.9t2.8 1.8q1.6.6 3.3.6 2.8 0 4.1-1 1.4-1 1.4-3.4 0-1.5-.8-2.8-.8-1.2-2.1-2.3t-3-2l-3.5-1.8-3.3-1.8q-1.6-1-2.9-2.2-1.3-1.3-2-2.8-1-1.4-1-3.3 0-2.4 1.3-4.4 1.2-2 3.1-3.2 2-1.4 4.5-2.1 2.5-.7 5.1-.7l3.4.2q1.7.2 3.3.6 1.5.4 2.9 1t2.2 1.2q.2.2 0 1.3 0 1-.4 2.5l-.9 2.7q-.5 1.3-1 2l-2.7-.4q-1-3.4-2.8-5.2-1.8-1.8-4.4-1.8-2.3 0-3.6 1-1.3 1.1-1.3 2.7 0 1.3.6 2.3t1.8 1.8q1.1.9 2.8 1.8 1.7.8 3.7 2l3.4 1.8q1.7 1 3.1 2.2 1.4 1.3 2.2 3 .9 1.5.9 3.7z" transform="matrix(1.003 0 0 1.011 175.1 175.8)"/>
    </g>
    <g id="subtitle" fill="#1c1c1c">
      <path d="M176.8 448.5q0-1.2-.2-2.2l-.7-1.8-1-1.3q-.7-.5-1.5-.5-.9 0-1.5.4t-1 1.1q-.3.7-.4 1.7l-.1 2.1q0 1.2.2 2.2.3 1 .8 1.7.4.8 1 1.2.6.5 1.3.5.9 0 1.5-.4t1-1q.3-.6.4-1.5.2-1 .2-2.2zm3.7-.7q0 1-.3 2-.2.9-.7 1.7l-1.1 1.6q-.7.7-1.5 1.2t-1.7.8q-1 .3-1.9.3-1.5 0-2.7-.5-1.3-.6-2.1-1.5-.9-1-1.4-2.2-.5-1.3-.5-2.8 0-1.4.6-2.8.5-1.3 1.5-2.4 1-1 2.3-1.7 1.3-.6 2.9-.6 1.5 0 2.7.5 1.2.5 2 1.5 1 .9 1.4 2.2.5 1.2.5 2.7zM194.5 433.7l-.1.4-.4.5-.5.5-.5.5-.5.4-.4.2q-.7-.9-1.4-1.3-.6-.3-1.1-.3-.4 0-.7.2-.4.2-.6.8l-.5 1.7q-.2 1-.1 2.8v1.3h3.6l.6.5-.4.5-.4.6-.3.4-.4.3q-.3-.2-1-.3-.6-.2-1.7-.2v9.9l.1.1.5.2.9.3 1.4.2v1.1h-8.4v-1q1-.2 1.5-.5l.5-.4v-9.9h-1.8l-.4-.5 1.1-1.3h1v-.5q0-1.2.2-2.2l.5-1.7q.3-.8.8-1.5l1-1.2 1.1-.9 1.2-.6 1-.4 1-.1 1.4.2q.6.1 1 .4l.9.4.3.4zM199.8 455v-1q1-.2 1.5-.5t.5-.5v-14.3q-1-1-2-1v-1.2h4.4l.3.2q.2.1.3.4l.5.6 9 12.4v-11.6l-.1-.2-.4-.2-.6-.3-1-.2v-1h6.3v1q-1 .1-1.6.4-.4.3-.4.5v17q-1.5-.2-2.3-.6-.9-.5-1.2-1l-9-12.4V453l.1.2.3.3.7.2 1 .2v1h-6.3zM226.6 442.7q-.7 0-1.2.3-.5.2-.8.7-.4.5-.6 1.2l-.3 1.6h5.4v-.5-1l-.5-1q-.3-.6-.8-1-.5-.3-1.2-.3zm6 4.2q0 .2-.3.4t-.5.3-.6.3l-.6.2h-6.9q0 1.1.3 2 .2.9.7 1.5.5.7 1.1 1 .7.4 1.6.4h.9l.9-.3 1.1-.5 1.5-1 .2.2.3.3.2.3v.2l-1.7 1.6q-.8.7-1.6 1-.7.4-1.4.5l-1.7.1q-1.2 0-2.3-.5-1.1-.4-2-1.4-.8-.9-1.2-2.1-.5-1.3-.5-2.9 0-2 .7-3.5.8-1.6 2.3-2.7l.8-.5 1-.4 1.1-.3 1.1-.2q1.5 0 2.5.5t1.7 1.4q.7.8 1 1.9.4 1 .4 2.3zM254.9 442.4l-.7.2-.4.2-.2.2-.2.3-3.2 10.8q0 .3-.4.5-.2.3-.6.4l-.6.3h-.5l-3.7-8.5-3 7.3-.4.6-.6.3-.6.3h-.5l-4-12q0-.3-.4-.5l-1.1-.4v-1h6.6v1q-.6 0-1 .2-.3 0-.5.2l-.1.2v.3l2.2 7 3.5-9h1.1l3.7 9 2.1-7v-.3-.2l-.5-.2-.8-.2v-1h4.8v1zM267.7 455v-1l1.1-.3.7-.3.4-.3.1-.2v-5.6l-1.2-2.5-1.3-2.4-1.3-2.1-1.2-1.7-.3-.3-.4-.2-.6-.2h-1v-1q.4-.2 1-.2l1-.2h1l.8-.1.8.2.7.5 1.1 1.6 1.2 2 1.2 2.2 1.1 2.2 3.4-6.5q.3-.4-.1-.6l-1.5-.4v-1h6.1v1l-1.5.4q-.4.2-.6.6l-4.7 8.7v5.8l.4.3.7.3 1.2.2v1.1h-8.3zM292.1 448.5q0-1.2-.2-2.2l-.7-1.8-1-1.3q-.7-.5-1.5-.5-.9 0-1.5.4t-1 1.1q-.3.7-.4 1.7l-.1 2.1q0 1.2.2 2.2.3 1 .8 1.7.4.8 1 1.2.6.5 1.3.5.9 0 1.5-.4t1-1q.3-.6.4-1.5.2-1 .2-2.2zm3.7-.7q0 1-.3 2-.2.9-.7 1.7l-1.1 1.6q-.7.7-1.5 1.2t-1.7.8q-1 .3-1.9.3-1.5 0-2.7-.5-1.3-.6-2.1-1.5t-1.4-2.2q-.5-1.3-.5-2.8 0-1.4.6-2.8.5-1.3 1.5-2.4 1-1 2.3-1.7 1.3-.6 2.9-.6 1.5 0 2.7.5 1.2.5 2 1.5 1 .9 1.4 2.2.5 1.2.5 2.7zM309.6 441.6v1.1l-.2 1q0 .6-.2 1.1l-.3 1-.2.7h-1.1l-.2-1-.3-1q-.2-.4-.5-.6l-.6-.2h-.7l-.7.5-.8.9-.9 1.6v6.4q0 .2.6.4l2 .4v1.1h-8v-1q2-.5 2-1v-7.7l-.1-.8v-.6q0-.2-.2-.3l-.1-.2-.2-.1-.3-.1-.4-.1h-.7v-1l1.4-.3 1.1-.2 1-.3 1.1-.3.6.6.2 2 1-1 1-.8q.5-.4 1.1-.6l1.3-.2 1.2.1 1.1.5zM310.8 455v-1l1.4-.5q.5-.2.5-.5v-16.5-1l-.3-.6-.6-.3-1-.1v-1l2.6-.5 2.2-.7.7.6v14.3l3.8-3.5q.5-.4.6-.7.2-.2 0-.3 0-.2-.3-.2h-.7v-1.1h6.5v1l-1.3.4q-.6.2-1.2.7l-4.5 3.3 5.3 6 .4.4.5.2h1.3v1.1l-1 .2-1 .2-.9.2h-.5l-1-.1q-.5-.2-.8-.6l-5.2-7v5.8l.2.2.5.2.9.3v1.1h-7.1zM349.8 451.9l-1.8 1.6-1.8 1.1-1.8.6-1.7.2q-1.5 0-2.9-.6t-2.5-1.8q-1-1.1-1.7-2.8-.7-1.7-.7-3.8 0-2.3.7-4.2.8-2 2-3.3 1.3-1.4 3-2 1.7-.8 3.6-.8l1.6.1 1.5.3 1.3.5 1 .6v.2l-.3.6-.3.6-.4.7-.3.6-.3.4-1-.2q-.7-1.3-1.7-1.9-1-.6-2-.6-.6 0-1.1.2l-1 .5q-.6.4-1 1-.5.6-.8 1.4-.4.9-.6 2-.2 1.2-.2 2.8 0 1.8.5 3.2.5 1.3 1.3 2.2.8.9 1.7 1.3 1 .4 2 .4h1l1-.4 1.4-.6 1.5-1.1.2.2.3.3q0 .2.2.3l.1.2zM351.8 455v-1l1.5-.5q.4-.3.4-.5v-7.5-1.2q0-.5-.2-.7-.1-.3-.5-.4l-1.2-.2v-1l2.4-.4 2.1-.7h1V453q0 .2.4.5l1.5.4v1.1h-7.4zm6-18.5l-.2 1-.5.6-.8.5q-.4.2-1 .2l-.7-.1-.7-.3-.4-.5q-.2-.3-.2-.8t.2-.9l.5-.7.8-.4 1-.2.7.1.7.3q.3.2.4.5.2.3.2.7zM370.7 452.7q-2 1.4-3.3 2-1.3.7-2.1.7-.7 0-1.2-.2-.6-.3-1-.8l-.7-1.2q-.2-.8-.2-1.8v-8.2h-1.8l-.4-.5 1.1-1.4h1v-3l3-2.2.6.5v4.7h4.5l.5.6-.3.5-.4.5-.4.5-.4.3-.4-.2-.6-.1-.8-.2h-1.7v8.1l.3.8.4.5.6.1h.5l.7-.2.8-.3 1-.6.7 1.1z" transform="matrix(1.003 0 0 1.011 94.9 -15)"/>
      <path d="M386.1 442.4l-.7.2q-.3 0-.5.2l-.2.2-.2.4-4.9 12.7q-.6 1.6-1.4 2.7-.7 1.2-1.5 2-.8.7-1.7 1-1 .4-1.9.4l-1-.1-1-.3-.7-.3-.3-.3.3-.5.6-.8.7-.8.6-.6q.7.5 1.5.6h1.3q.5-.3 1.1-1 .6-.5 1.2-1.8l.4-1-5-11.9q0-.4-.5-.6l-1-.4v-1h6.6v1q-.6 0-.9.2-.3 0-.4.2-.2 0-.2.2l.2.4 3 7.4 2.9-7.4v-.4-.2l-.4-.2-.8-.2v-1h4.8v1z" transform="matrix(1.003 0 0 1.011 94.9 -15)"/>
    </g>
  </g>
</svg>
